<?xml version="1.0" encoding="utf-8"?>
<!-- Generator: Adobe Illustrator 23.0.4, SVG Export Plug-In . SVG Version: 6.00 Build 0)  -->
<svg version="1.1"
	 id="svg2" xmlns:cc="http://creativecommons.org/ns#" xmlns:dc="http://purl.org/dc/elements/1.1/" xmlns:rdf="http://www.w3.org/1999/02/22-rdf-syntax-ns#" xmlns:svg="http://www.w3.org/2000/svg"
	 xmlns="http://www.w3.org/2000/svg" xmlns:xlink="http://www.w3.org/1999/xlink" x="0px" y="0px" viewBox="0 0 1056 816"
	 style="enable-background:new 0 0 1056 816;" xml:space="preserve">
<style type="text/css">
	.st0{fill:#663EA1;}
	.st1{fill:#41BCB2;}
</style>
<g id="g10" transform="matrix(1.3333333,0,0,-1.3333333,0,816)">
	<g id="g12" transform="scale(0.1)">
		<path id="path14" class="st0" d="M3844.3,2696l-359.1,297.4v-289.2h-142.8v591.8l359.1-297.4v289.2h142.8V2696"/>
		<path id="path16" class="st0" d="M4790.7,2704.1h-147.5v447.8h-134.3v135.8h416.1v-135.8h-134.3V2704.1"/>
		<path id="path18" class="st0" d="M5447.4,2704.1h-369.6v583.6h365.8v-135.8H5223v-88.2h176.3v-132.6H5223V2840h224.4V2704.1"/>
		<path id="path20" class="st0" d="M5947.2,2989.4c31.4,11.6,138,58.9,138,193.9c0,97.6-77.1,207.1-243.7,207.1h-215.7v-686.3h148.6
			v271.1h7.6l212.9-271.1h177.5L5947.2,2989.4z M5863.4,3108.3h-89.1v144.1h89.1c47.1,0,78.1-31.6,78.1-72.1
			C5941.4,3145,5915.3,3108.3,5863.4,3108.3"/>
		<path id="path22" class="st0" d="M2415.6,3424.5l-333.9-334.9l-334,334.9v-720.3h148.6v362.6l185.3-186l185.3,186v-362.6h148.6
			L2415.6,3424.5"/>
		<path id="path24" class="st0" d="M4197.7,2695.6c-133.4,0-202.8,74.8-214.4,86.1l74.9,106.2c11.7-10.3,64.8-57.4,134.9-57.4
			c47.6,0,61.4,22.8,61.4,41c0,18.9-14.2,35.8-64.4,54.5l-44.2,16.5c-81.5,30.4-133.3,87.2-133.3,171.7
			c0,103.6,82.9,182.2,200.7,182.2c106.1,0,165.6-51,172.2-56.8l-70.2-109.4c-14.4,9.9-54,31.5-97.9,31.5
			c-41.1,0-59.8-17.5-59.8-38.6c0-27.4,24.4-39,67.6-55.2l40-14.9c83.9-31.3,136.6-95.5,136.6-172.4
			C4401.8,2775.2,4318.5,2695.6,4197.7,2695.6"/>
		<path id="path26" class="st1" d="M2879,3296.4c-169.6,0-303.4-134.5-303.4-300.4c0-165.9,133.8-300.4,303.4-300.4
			c169.6,0,303.4,134.5,303.4,300.4C3182.4,3161.9,3048.6,3296.4,2879,3296.4 M2879,2836.2c-89.4,0-158.2,71.5-158.2,159.8
			c0,88.2,68.8,159.8,158.2,159.8c89.4,0,158.2-71.6,158.2-159.8C3037.2,2907.7,2968.4,2836.2,2879,2836.2"/>
	</g>
</g>
</svg>
